<?xml version="1.0" encoding="utf-8"?>
<!-- Generator: Adobe Illustrator 25.4.1, SVG Export Plug-In . SVG Version: 6.00 Build 0)  -->
<svg version="1.1" id="Layer_1" xmlns="http://www.w3.org/2000/svg" xmlns:xlink="http://www.w3.org/1999/xlink" x="0px" y="0px"
	 viewBox="0 0 255 35" style="enable-background:new 0 0 255 35;" xml:space="preserve">
<style type="text/css">
	.st0{fill:#FF3008;}
</style>
<path class="st0" d="M75,11.2V24h3.2c1.6,0,3.2-0.7,4.3-1.9s1.8-2.8,1.7-4.5c0-1.7-0.6-3.3-1.7-4.5c-1.1-1.2-2.7-1.9-4.4-1.9
	L75,11.2L75,11.2z M78.2,7.2c5.9,0,10.4,4.6,10.4,10.4S84.1,28,78.2,28h-7c-0.3,0-0.5-0.2-0.5-0.5l0,0V7.7c0-0.3,0.2-0.5,0.5-0.5
	C71.2,7.2,78.2,7.2,78.2,7.2z M103.9,24.4c2.7,0,5.1-1.6,6.2-4.2c1-2.5,0.5-5.5-1.4-7.4c-1.9-2-4.8-2.5-7.3-1.5
	c-2.5,1.1-4.1,3.5-4.1,6.3C97.3,21.3,100.2,24.4,103.9,24.4 M103.9,6.7c6.2,0,11,4.9,11,10.8s-4.8,10.8-11,10.8s-11-4.9-11-10.8
	S97.7,6.7,103.9,6.7 M130.1,24.4c3.7,0,6.6-3.1,6.6-6.8c0-3.8-3-6.8-6.7-6.8s-6.7,3.1-6.7,6.8c0,1.8,0.7,3.6,2,4.8
	C126.6,23.7,128.3,24.4,130.1,24.4 M130.1,6.7c6.2,0,11,4.9,11,10.8s-4.8,10.8-11,10.8c-6.2,0-11-4.9-11-10.8S123.9,6.7,130.1,6.7
	 M155.7,11.2h-4.5v5.5h4.5c0.7,0,1.4-0.2,1.9-0.7s0.8-1.2,0.8-1.9c0-0.8-0.3-1.5-0.8-2C157.1,11.4,156.4,11.2,155.7,11.2L155.7,11.2
	L155.7,11.2z M146.8,7.7c0-0.3,0.2-0.5,0.5-0.5h8.5c4,0,6.9,3,6.9,6.8c0,2.6-1.4,4.9-3.6,6.1l3.9,7.1c0.1,0.2,0.1,0.4,0,0.6
	c-0.1,0.2-0.3,0.3-0.5,0.3h-3.4c-0.2,0-0.4-0.1-0.5-0.3l-3.8-7H151v6.7c0,0.3-0.2,0.5-0.5,0.5l0,0h-3.3c-0.3,0-0.5-0.2-0.5-0.5l0,0
	L146.8,7.7L146.8,7.7z M174.1,11.3v12.8h3.2c1.6,0,3.2-0.7,4.3-1.9c1.1-1.2,1.8-2.8,1.7-4.5c0.1-1.7-0.6-3.3-1.7-4.5
	c-1.1-1.2-2.7-1.9-4.4-1.9C177.2,11.3,174.1,11.3,174.1,11.3z M177.2,7.3c5.9,0,10.4,4.6,10.4,10.4s-4.5,10.4-10.4,10.4h-7
	c-0.3,0-0.5-0.2-0.5-0.5l0,0V7.8c0-0.3,0.2-0.5,0.5-0.5H177.2L177.2,7.3z M200.9,12.3l-2.5,6.8h4.9L200.9,12.3z M197,23l-1.6,4.5
	c-0.1,0.2-0.3,0.4-0.5,0.4h-3.5c-0.2,0-0.4-0.1-0.5-0.2c-0.1-0.2-0.1-0.3,0-0.5l7.5-19.7c0.1-0.2,0.3-0.4,0.5-0.3h3.9
	c0.2,0,0.4,0.1,0.5,0.3l7.6,19.7c0.1,0.2,0.1,0.4,0,0.5c-0.1,0.2-0.3,0.2-0.5,0.2h-3.5c-0.2,0-0.4-0.1-0.5-0.4l-1.6-4.5L197,23
	L197,23z M215,12.8c0-3.3,2.8-6.1,7.1-6.1c2.3-0.1,4.6,0.8,6.3,2.4c0.2,0.2,0.2,0.5,0,0.7l0,0l-1.9,2c-0.2,0.2-0.5,0.2-0.7,0l0,0
	c-0.9-0.9-2.1-1.3-3.4-1.4c-1.7,0-3,1-3,2.2c0,3.9,10.3,1.6,10.3,9.1c0,3.8-2.8,6.6-7.7,6.6c-2.7,0-5.4-1.1-7.3-3
	c-0.2-0.2-0.2-0.5,0-0.7l0,0l1.9-1.9c0.2-0.2,0.5-0.2,0.7,0l0,0c1.2,1.2,2.8,1.8,4.4,1.9c2.2,0,3.6-1.2,3.6-2.7
	C225.2,18,215,20.2,215,12.8 M248.2,7.7v7.8h-8.7V7.7c0-0.3-0.2-0.5-0.5-0.5l0,0h-3.3c-0.3,0-0.5,0.2-0.5,0.5l0,0v19.7
	c0,0.3,0.2,0.5,0.5,0.5h3.3c0.3,0,0.5-0.2,0.5-0.5v-7.9h8.7v7.9c0,0.3,0.2,0.5,0.5,0.5h3.3c0.3,0,0.5-0.2,0.5-0.5V7.7
	c0-0.3-0.2-0.5-0.5-0.5l0,0h-3.3C248.4,7.2,248.2,7.4,248.2,7.7z M52.2,9.8c-2.3-4.2-6.8-6.9-11.6-6.9H3.8c-0.5,0-1,0.3-1.2,0.8
	s-0.1,1,0.3,1.4l8,8c0.7,0.7,1.7,1.1,2.7,1.1h25.9c1.8,0,3.4,1.4,3.4,3.3c0,1.8-1.5,3.3-3.3,3.3H21.7c-0.5,0-1,0.3-1.2,0.8
	s-0.1,1,0.3,1.4l8,8c0.7,0.5,1.7,0.9,2.7,0.9h8.1C50.1,31.9,58.1,20.8,52.2,9.8"/>
</svg>
