<svg enable-background="new 0 0 520 520" height="512" viewBox="0 0 520 520" width="512" xmlns="http://www.w3.org/2000/svg"><g id="_x39_96_x2C__Celebrate_x2C__Flag_x2C__Party_x2C__Ribbon"><g><g><path d="m460.42 374.79c11.04 0 20 8.95 20 20s-8.96 20-20 20c-11.05 0-20-8.95-20-20s8.95-20 20-20z" fill="#faccae"/><path d="m77.92 194.79c15.18 0 27.5 12.31 27.5 27.5s-12.32 27.5-27.5 27.5c-15.19 0-27.5-12.31-27.5-27.5 0-15.189 12.31-27.5 27.5-27.5z" fill="#faccae"/><path d="m360.03 377.021 20.059 81.329-43.2-26.1-26.109 43.19-21.93-88.94c8.16-.36 16.101-.92 23.78-1.66 17.23-1.68 33.17-4.319 47.4-7.819z" fill="#bc222e"/><path d="m178.62 404.53 2.19-24.13c11.32 1.739 22.98 3.17 34.88 4.25 12.3 1.12 24.41 1.819 36.21 2.14l-8.94 98.42-32.31-38.77-38.77 32.31z" fill="#f797b1"/><path d="m143.82 373.37-37.59 83.49-17.89-47.19-47.19 17.89 34.34-76.279c11.69 5.229 24.75 10.06 38.93 14.33 9.34 2.819 19.16 5.419 29.4 7.759z" fill="#73bcff"/><path d="m439.36 185.851 46.06 69.84-49.45-10.15-10.14 49.45-50.41-76.44c9.74-3.94 19.021-8.07 27.79-12.34 13.3-6.481 25.44-13.331 36.15-20.36z" fill="#da4a54"/><path d="m346.03 254.86 18.479 72.199-43.42-25.72-25.729 43.42-24.511-95.729c11.61-2.2 23.45-4.83 35.421-7.89 11.579-2.96 22.859-6.23 33.75-9.75z" fill="#de7b5c"/><path d="m234.33 254.63-7.48 91.299-32.65-38.479-38.49 32.65 6.84-83.489c14.6 1.189 30.76 1.26 48.04.17 7.7-.491 15.62-1.2 23.74-2.151z" fill="#96d8f3"/><path d="m360.03 86.141 20.059 81.33-43.2-26.11-26.109 43.2-21.93-88.951c8.16-.36 16.101-.92 23.78-1.66 17.23-1.679 33.17-4.32 47.4-7.809z" fill="#fed8e4"/><path d="m178.62 113.641 2.19-24.12v-.01c11.32 1.75 22.98 3.18 34.88 4.26 12.3 1.12 24.41 1.82 36.21 2.13l-8.94 98.42-32.31-38.77-38.77 32.32z" fill="#ffd400"/><path d="m143.82 82.491-37.59 83.49-17.89-47.2-47.19 17.9 34.34-76.29c11.69 5.24 24.75 10.07 38.93 14.34 9.34 2.819 19.16 5.419 29.4 7.76z" fill="#68ca44"/><g fill="#ffd400"><path d="m462.92 54.791c4.14 0 7.5 3.36 7.5 7.5s-3.36 7.5-7.5 7.5c-4.149 0-7.5-3.36-7.5-7.5 0-4.141 3.35-7.5 7.5-7.5z"/><path d="m462.92 314.79c4.14 0 7.5 3.36 7.5 7.5s-3.36 7.5-7.5 7.5c-4.149 0-7.5-3.36-7.5-7.5s3.35-7.5 7.5-7.5z"/><path d="m422.92 429.79c4.14 0 7.5 3.36 7.5 7.5s-3.36 7.5-7.5 7.5c-4.149 0-7.5-3.36-7.5-7.5s3.35-7.5 7.5-7.5z"/><path d="m282.92 189.79c4.14 0 7.5 3.36 7.5 7.5s-3.36 7.5-7.5 7.5c-4.149 0-7.5-3.36-7.5-7.5s3.351-7.5 7.5-7.5z"/><path d="m242.92 39.791c4.14 0 7.5 3.36 7.5 7.5s-3.36 7.5-7.5 7.5c-4.15 0-7.5-3.36-7.5-7.5 0-4.141 3.35-7.5 7.5-7.5z"/><path d="m147.92 194.79c4.14 0 7.5 3.36 7.5 7.5s-3.36 7.5-7.5 7.5c-4.15 0-7.5-3.36-7.5-7.5s3.35-7.5 7.5-7.5z"/><path d="m142.92 459.79c4.14 0 7.5 3.36 7.5 7.5s-3.36 7.5-7.5 7.5c-4.15 0-7.5-3.36-7.5-7.5s3.35-7.5 7.5-7.5z"/><path d="m102.92 279.79c4.14 0 7.5 3.36 7.5 7.5s-3.36 7.5-7.5 7.5c-4.15 0-7.5-3.36-7.5-7.5s3.351-7.5 7.5-7.5z"/></g><path d="m36.554 334.66c-2.198-1.672-2.625-4.809-.954-7.007s4.807-2.625 7.006-.954c71.578 54.433 258.451 73 345.938 35.829 2.542-1.081 5.477.104 6.558 2.647 1.079 2.541-.105 5.478-2.647 6.557-9.155 3.89-19.663 7.303-31.232 10.145-97.987 24.104-257.822 3.608-324.669-47.217z" fill="#33383f"/><path d="m36.554 43.771c-2.198-1.671-2.625-4.808-.954-7.006s4.807-2.626 7.006-.954c71.923 54.689 258.896 72.823 345.938 35.838 2.542-1.08 5.477.105 6.558 2.647 1.079 2.541-.105 5.477-2.647 6.557-91.94 39.06-282.087 19.046-355.901-37.082z" fill="#33383f"/><path d="m129.703 256.565c-2.681-.661-4.318-3.371-3.657-6.052s3.369-4.319 6.052-3.657c9.165 2.26 19.545 3.865 30.852 4.77 81.829 6.664 203.023-23.586 273.667-69.956 12.721-8.356 23.246-16.877 31.281-25.326 1.903-1.999 5.067-2.08 7.068-.177s2.08 5.068.178 7.069c-63.863 67.151-248.724 117.175-345.441 93.329z" fill="#33383f"/></g><g><path d="m460.42 374.79c11.04 0 20 8.95 20 20s-8.96 20-20 20c-11.05 0-20-8.95-20-20s8.95-20 20-20z" fill="#faccae"/><path d="m77.92 194.79c15.18 0 27.5 12.31 27.5 27.5s-12.32 27.5-27.5 27.5c-15.19 0-27.5-12.31-27.5-27.5 0-15.189 12.31-27.5 27.5-27.5z" fill="#faccae"/><path d="m360.03 377.021 20.059 81.329-43.2-26.1-26.109 43.19-21.93-88.94c8.16-.36 16.101-.92 23.78-1.66 17.23-1.68 33.17-4.319 47.4-7.819z" fill="#bc222e"/><path d="m178.62 404.53 2.19-24.13c11.32 1.739 22.98 3.17 34.88 4.25 12.3 1.12 24.41 1.819 36.21 2.14l-8.94 98.42-32.31-38.77-38.77 32.31z" fill="#f797b1"/><path d="m143.82 373.37-37.59 83.49-17.89-47.19-47.19 17.89 34.34-76.279c11.69 5.229 24.75 10.06 38.93 14.33 9.34 2.819 19.16 5.419 29.4 7.759z" fill="#73bcff"/><path d="m439.36 185.851 46.06 69.84-49.45-10.15-10.14 49.45-50.41-76.44c9.74-3.94 19.021-8.07 27.79-12.34 13.3-6.481 25.44-13.331 36.15-20.36z" fill="#da4a54"/><path d="m346.03 254.86 18.479 72.199-43.42-25.72-25.729 43.42-24.511-95.729c11.61-2.2 23.45-4.83 35.421-7.89 11.579-2.96 22.859-6.23 33.75-9.75z" fill="#de7b5c"/><path d="m234.33 254.63-7.48 91.299-32.65-38.479-38.49 32.65 6.84-83.489c14.6 1.189 30.76 1.26 48.04.17 7.7-.491 15.62-1.2 23.74-2.151z" fill="#96d8f3"/><path d="m360.03 86.141 20.059 81.33-43.2-26.11-26.109 43.2-21.93-88.951c8.16-.36 16.101-.92 23.78-1.66 17.23-1.679 33.17-4.32 47.4-7.809z" fill="#fed8e4"/><path d="m178.62 113.641 2.19-24.12v-.01c11.32 1.75 22.98 3.18 34.88 4.26 12.3 1.12 24.41 1.82 36.21 2.13l-8.94 98.42-32.31-38.77-38.77 32.32z" fill="#ffd400"/><path d="m143.82 82.491-37.59 83.49-17.89-47.2-47.19 17.9 34.34-76.29c11.69 5.24 24.75 10.07 38.93 14.34 9.34 2.819 19.16 5.419 29.4 7.76z" fill="#68ca44"/><g fill="#ffd400"><path d="m462.92 54.791c4.14 0 7.5 3.36 7.5 7.5s-3.36 7.5-7.5 7.5c-4.149 0-7.5-3.36-7.5-7.5 0-4.141 3.35-7.5 7.5-7.5z"/><path d="m462.92 314.79c4.14 0 7.5 3.36 7.5 7.5s-3.36 7.5-7.5 7.5c-4.149 0-7.5-3.36-7.5-7.5s3.35-7.5 7.5-7.5z"/><path d="m422.92 429.79c4.14 0 7.5 3.36 7.5 7.5s-3.36 7.5-7.5 7.5c-4.149 0-7.5-3.36-7.5-7.5s3.35-7.5 7.5-7.5z"/><path d="m282.92 189.79c4.14 0 7.5 3.36 7.5 7.5s-3.36 7.5-7.5 7.5c-4.149 0-7.5-3.36-7.5-7.5s3.351-7.5 7.5-7.5z"/><path d="m242.92 39.791c4.14 0 7.5 3.36 7.5 7.5s-3.36 7.5-7.5 7.5c-4.15 0-7.5-3.36-7.5-7.5 0-4.141 3.35-7.5 7.5-7.5z"/><path d="m147.92 194.79c4.14 0 7.5 3.36 7.5 7.5s-3.36 7.5-7.5 7.5c-4.15 0-7.5-3.36-7.5-7.5s3.35-7.5 7.5-7.5z"/><path d="m142.92 459.79c4.14 0 7.5 3.36 7.5 7.5s-3.36 7.5-7.5 7.5c-4.15 0-7.5-3.36-7.5-7.5s3.35-7.5 7.5-7.5z"/><path d="m102.92 279.79c4.14 0 7.5 3.36 7.5 7.5s-3.36 7.5-7.5 7.5c-4.15 0-7.5-3.36-7.5-7.5s3.351-7.5 7.5-7.5z"/></g><path d="m36.554 334.66c-2.198-1.672-2.625-4.809-.954-7.007s4.807-2.625 7.006-.954c71.578 54.433 258.451 73 345.938 35.829 2.542-1.081 5.477.104 6.558 2.647 1.079 2.541-.105 5.478-2.647 6.557-9.155 3.89-19.663 7.303-31.232 10.145-97.987 24.104-257.822 3.608-324.669-47.217z" fill="#33383f"/><path d="m36.554 43.771c-2.198-1.671-2.625-4.808-.954-7.006s4.807-2.626 7.006-.954c71.923 54.689 258.896 72.823 345.938 35.838 2.542-1.08 5.477.105 6.558 2.647 1.079 2.541-.105 5.477-2.647 6.557-91.94 39.06-282.087 19.046-355.901-37.082z" fill="#33383f"/><path d="m129.703 256.565c-2.681-.661-4.318-3.371-3.657-6.052s3.369-4.319 6.052-3.657c9.165 2.26 19.545 3.865 30.852 4.77 81.829 6.664 203.023-23.586 273.667-69.956 12.721-8.356 23.246-16.877 31.281-25.326 1.903-1.999 5.067-2.08 7.068-.177s2.08 5.068.178 7.069c-63.863 67.151-248.724 117.175-345.441 93.329z" fill="#33383f"/></g></g></g></svg>