<svg xmlns="http://www.w3.org/2000/svg" width="250" height="70.39" viewBox="0 0 250 70.39"><defs><style>.cls-1{fill:#ff8000;}</style></defs><g id="Layer_2" data-name="Layer 2"><g id="layer"><path class="cls-1" d="M248.67,27.84a.25.25,0,0,0,.25-.25.22.22,0,0,0-.25-.25h-.25v.5Zm-.5-.67h.54a.42.42,0,0,1,.46.46.43.43,0,0,1-.25.37h0l0,.09.29.54H249l-.25-.54h-.25v.54h-.29Zm.45,1.88a1.13,1.13,0,1,0-1.08-1.13A1.11,1.11,0,0,0,248.62,29.05Zm0-2.55a1.42,1.42,0,1,1-1.37,1.42A1.42,1.42,0,0,1,248.62,26.5Zm-6.83,24.38h0a4.52,4.52,0,0,1-.87,2.8l0,0,0,0a2.52,2.52,0,0,1-2.21.91h-3.42V47.3h3.42a2.63,2.63,0,0,1,2.21.92l0,0a4.31,4.31,0,0,1,.83,2.71Zm-6.46-17h3a2.56,2.56,0,0,1,2,.79l0,0a3.44,3.44,0,0,1,.71,2.46,3.94,3.94,0,0,1-.75,2.63v0a2.39,2.39,0,0,1-2,.84h-3V33.84Zm13.46,17v0a9.38,9.38,0,0,0-3.5-7.29l0,0,0,0a9.19,9.19,0,0,0,2.84-6.67v.13a10.67,10.67,0,0,0-2.54-7.21l0,.08a9.71,9.71,0,0,0-7.38-3.21h-9.58a.57.57,0,0,0-.59.59h0V61a.57.57,0,0,0,.59.58h10A9.89,9.89,0,0,0,246.54,58l0,0a10.35,10.35,0,0,0,2.29-7.21m-25.92.46v-24a.58.58,0,0,0-.54-.55h-6.17a.53.53,0,0,0-.58.5h0v24a4.25,4.25,0,0,1-.79,2.71,2.76,2.76,0,0,1-3.84.21c-.08,0-.12-.13-.21-.21A4.14,4.14,0,0,1,210,51.3v-24a.62.62,0,0,0-.58-.55h-6.13a.56.56,0,0,0-.58.55V51.38a11,11,0,0,0,2.58,7.88l.09.08a11.14,11.14,0,0,0,15.08-.12l-.08.08a11.46,11.46,0,0,0,2.54-8M196.82,26.75h-6a.57.57,0,0,0-.58.59h0v13h-6.08v-13a.57.57,0,0,0-.59-.59h-6a.57.57,0,0,0-.58.59h0V61a.57.57,0,0,0,.58.58h6a.57.57,0,0,0,.59-.58h0V47.42h6.08V61a.57.57,0,0,0,.58.58h6a.57.57,0,0,0,.59-.58h0V27.34A.6.6,0,0,0,196.82,26.75ZM165.49,50.88h0a4.53,4.53,0,0,1-.88,2.8l0,0,0,0a2.5,2.5,0,0,1-2.2.91h-3.42V47.3h3.42a2.62,2.62,0,0,1,2.2.92l0,0a4.26,4.26,0,0,1,.84,2.71Zm-6.46-17h3a2.56,2.56,0,0,1,2,.79l0,0a3.53,3.53,0,0,1,.71,2.46,4,4,0,0,1-.75,2.63v0a2.39,2.39,0,0,1-2,.84H159V33.84Zm13.5,17v.09a9.39,9.39,0,0,0-3.5-7.3h0l0,0a9.22,9.22,0,0,0,2.83-6.67,10.42,10.42,0,0,0-2.54-7V30A9.62,9.62,0,0,0,162,26.8h-9.55a.57.57,0,0,0-.58.58h0V61a.57.57,0,0,0,.58.58h10A9.89,9.89,0,0,0,170.28,58l0,0a10.4,10.4,0,0,0,2.29-7.21m-25.92.46v-24a.62.62,0,0,0-.59-.55H139.9a.57.57,0,0,0-.59.55v24a4.27,4.27,0,0,1-.83,2.75,2.7,2.7,0,0,1-3.79.17c-.08,0-.13-.13-.21-.21a4.14,4.14,0,0,1-.79-2.67v-24a.55.55,0,0,0-.54-.55H127a.53.53,0,0,0-.58.5h0v24A10.91,10.91,0,0,0,129,59.18a10.19,10.19,0,0,0,7.5,3h.08a10.16,10.16,0,0,0,7.51-3,11.17,11.17,0,0,0,2.54-7.88M114.06,40.38h0a2.93,2.93,0,0,1-2.37,1h-2.92V33.8h2.92a3.12,3.12,0,0,1,2.37,1v0a3.91,3.91,0,0,1,.92,2.66v0A4,4,0,0,1,114.06,40.38Zm3.71,6.21h0a12.41,12.41,0,0,0,1.71-1.5l0,0a11.15,11.15,0,0,0,2.71-7.62v-.09a10.93,10.93,0,0,0-2.8-7.46l.13.13a10,10,0,0,0-7.21-3.38h-10a.57.57,0,0,0-.59.59h0V61a.57.57,0,0,0,.59.58h6a.57.57,0,0,0,.59-.58h0V48.55H111l3.79,12.71a.59.59,0,0,0,.58.42h6.34a.62.62,0,0,0,.5-.25.64.64,0,0,0,0-.54l-4.42-14.3M94.43,29.13a10.16,10.16,0,0,0-7.5-3h0a10.1,10.1,0,0,0-7.5,3l.08-.08A11.09,11.09,0,0,0,76.76,37V51.3a10.9,10.9,0,0,0,2.59,7.92,10.17,10.17,0,0,0,7.5,3H87a10.08,10.08,0,0,0,7.5-3,11,11,0,0,0,2.59-8V43.42a.61.61,0,0,0-.63-.58H87.6a.61.61,0,0,0-.63.58V49.3a.67.67,0,0,0,.63.62H90v1.34a4.64,4.64,0,0,1-.84,2.83l0,0a2.47,2.47,0,0,1-2.16,1h0a2.4,2.4,0,0,1-2.16-.92A4.19,4.19,0,0,1,84,51.3V37.05a4.49,4.49,0,0,1,.92-2.88,2.5,2.5,0,0,1,2.17-1h0a2.4,2.4,0,0,1,2.16.92l0,0A4.33,4.33,0,0,1,90,37v1.33a.62.62,0,0,0,.58.54h6a.56.56,0,0,0,.58-.54V37a11.2,11.2,0,0,0-2.71-7.88h0m-35.05-8a1.11,1.11,0,0,1-.25-.58h0a105.27,105.27,0,0,0-1.66-12A2,2,0,0,0,55.8,7l-5.75-.71h-.17a1.22,1.22,0,0,0-1.21,1.21v2a.1.1,0,0,1-.08.09h0A80.61,80.61,0,0,0,37,.88,5.09,5.09,0,0,0,34.13,0h0A5,5,0,0,0,31.3.88C11.5,13.09.58,33,.17,34.09a1.79,1.79,0,0,0-.17.83,2,2,0,0,0,1.5,1.92l5.71,1.08a2,2,0,0,1,1.42,1.67c0,1,1.12,23.5,2.5,29.34A2,2,0,0,0,13,70.39h.05c3.33-.09,6.37-.13,9.66-.17h.3a.64.64,0,0,0,.62-.63h0c-.12-2-.42-6.45-.67-11.16a1.23,1.23,0,0,0,0-.38h0a1.24,1.24,0,0,0-.58-1,6.24,6.24,0,0,1-3-5c-.29-7.87-.46-17,0-24.13a1.15,1.15,0,0,1,2.29.05v.08c-.29,4.75-.29,10.38-.21,15.92a1.36,1.36,0,0,0,2.71,0c-.08-5.59-.08-11.25.21-16a1.15,1.15,0,0,1,2.29.05v.08c-.29,4.75-.29,10.33-.21,15.84h0a1.36,1.36,0,0,0,2.71,0c-.08-5.54-.08-11.21.21-16a1.17,1.17,0,0,1,1.13-1.08A1.15,1.15,0,0,1,31.67,28v.09c-.41,6.92-.29,15.71,0,23.42v.21h0v.08A6.1,6.1,0,0,1,29,56.88a1.08,1.08,0,0,0-.5.88,53.19,53.19,0,0,0,.38,6.92c.25,2.5.42,4.25.5,5a.62.62,0,0,0,.58.54h8.67l3.25,0h0a.72.72,0,0,0,.63-.54c.75-6.88.91-10.71.91-10.71a.68.68,0,0,0-.62-.67l-3.92-.62a1.36,1.36,0,0,1-1.12-1,1.76,1.76,0,0,1,0-.63C39.3,33.26,46.84,25.5,46.84,25.5c.21-.2.38-.33.38-.33a1.44,1.44,0,0,1,.7-.25,1.25,1.25,0,0,1,1.13.75,5,5,0,0,1,.08.54c.67,7.21.34,19.46-.08,29-.33,8.12-.75,14.46-.75,14.46h0a.47.47,0,0,0,.46.46h0l6.5.12h0a2,2,0,0,0,1.92-1.46c1.37-5.83,2.41-28.33,2.5-29.34a2,2,0,0,1,1.42-1.66l5.7-1.09a2,2,0,0,0,1.5-1.91,2.85,2.85,0,0,0-.16-.84,96.25,96.25,0,0,0-8.8-12.83"/></g></g></svg>