<svg xmlns="http://www.w3.org/2000/svg" width="61" height="29.34" viewBox="0 0 61 29.34"><defs><style>.cls-1{fill:#414042;}.cls-2{fill:#fff;}</style></defs><g id="Layer_2" data-name="Layer 2"><g id="Elements"><path class="cls-1" d="M60.92,27.46c-1-2.77-2.15-5.51-3.31-8.13a18.06,18.06,0,0,0-2.76-4.67,11.25,11.25,0,0,0-3.8-3.21,10.12,10.12,0,0,0-4.08-1,3.81,3.81,0,0,0-.59-.92,3.57,3.57,0,0,0-1-.77,5.63,5.63,0,0,0,.17-1.62c0-.32-.08-.58-.12-.8-.08-.43-.08-.53,0-.63l.08,0a2.5,2.5,0,0,0,.66-.4,4.36,4.36,0,0,0,1.06-1.33,4.87,4.87,0,0,0,.37-.82,1,1,0,0,1,.22-.41,1.45,1.45,0,0,1,.37-.31l.2-.14a.81.81,0,0,0,.33-.9,1,1,0,0,0-1-.6,1.69,1.69,0,0,0-.58.1,2,2,0,0,0-.84.53l-.48.4a3.62,3.62,0,0,1-1.46.82,1.52,1.52,0,0,1-.47,0A1.9,1.9,0,0,1,43,2l-.13-.11a5.86,5.86,0,0,0-.62-.46l-.13-.1A3.85,3.85,0,0,0,40.88.71h-.07A3.81,3.81,0,0,0,40,.61l-4.42,0-7.24,0a1.68,1.68,0,0,0-1.61,1L6.35,1.73V.82A.56.56,0,0,0,6.05.33,2.69,2.69,0,0,0,4.78,0a2.5,2.5,0,0,0-.66.09,2.65,2.65,0,0,0-1.65,1.5l-.06.16H1.17a1,1,0,0,0-.92.68A6,6,0,0,0,0,4.17,5.43,5.43,0,0,0,.27,5.86a1,1,0,0,0,.91.67l3.54,0a1,1,0,0,0,0,.17,2.56,2.56,0,0,0,.08.67.94.94,0,0,0,.91.71H7.63a.77.77,0,0,0,.56.47l.23,0h.7A.88.88,0,0,0,9.91,8L26.63,8v.39a1.65,1.65,0,0,0,.61,1.26l.15.11a1.28,1.28,0,0,1,.5.59,6.23,6.23,0,0,1,.3,1.73,4.33,4.33,0,0,0,.11.87A1.62,1.62,0,0,0,29.56,14l11.23,2a1.13,1.13,0,0,1,.69.53,2,2,0,0,0,1,.78l.11,0,1.61.16a10,10,0,0,1,2.23.33,4.5,4.5,0,0,1,2.49,2.9c.47,1.25.32,2.41.06,4.32a21,21,0,0,1-.5,2.54,1.37,1.37,0,0,0,.24,1.16,1.4,1.4,0,0,0,1.07.53h1.5l3.48,0c1.63,0,3.24,0,4.88,0a1.35,1.35,0,0,0,1.11-.58A1.36,1.36,0,0,0,60.92,27.46Z"/><path class="cls-1" d="M2.85,2.37A2.26,2.26,0,0,1,3,1.81,2,2,0,0,1,4.28.64a2,2,0,0,1,1.5.18V2.37Z"/><path class="cls-1" d="M5.78,2.59H2.85a.2.2,0,0,1-.16-.07.18.18,0,0,1,0-.16,1.83,1.83,0,0,1,.16-.62A2.24,2.24,0,0,1,4.22.43,2.1,2.1,0,0,1,4.78.35a2.39,2.39,0,0,1,1.1.28A.21.21,0,0,1,6,.82V2.37a.2.2,0,0,1-.06.15A.24.24,0,0,1,5.78,2.59ZM3.11,2.16H5.57V1A2,2,0,0,0,4.78.78a1.74,1.74,0,0,0-.45.06,1.86,1.86,0,0,0-1.14,1A2.13,2.13,0,0,0,3.11,2.16Z"/><path class="cls-2" d="M28.85,5.86,1.18,6A.41.41,0,0,1,.8,5.69,5.5,5.5,0,0,1,.56,4.17,5.46,5.46,0,0,1,.79,2.59a.4.4,0,0,1,.38-.27l27.67-.1Z"/><path class="cls-1" d="M28.86,6.08l-27.68.1A.6.6,0,0,1,.6,5.75,5.32,5.32,0,0,1,.35,4.17,5.66,5.66,0,0,1,.59,2.53a.61.61,0,0,1,.58-.43L28.84,2a.22.22,0,0,1,.22.22V5.86A.22.22,0,0,1,28.86,6.08ZM1.17,2.53A.17.17,0,0,0,1,2.66a5.09,5.09,0,0,0-.22,1.5A4.79,4.79,0,0,0,1,5.62a.17.17,0,0,0,.17.13l27.46-.1V2.43Z"/><path class="cls-1" d="M.8,4.19A6.22,6.22,0,0,1,.6,3.12c0,.24,0,.49,0,.76A7.18,7.18,0,0,0,.8,5.64.42.42,0,0,0,1.18,6l27.67-.1V4.41l-27.67.1A.4.4,0,0,1,.8,4.19Z"/><path class="cls-1" d="M27.93,7.42,5.7,7.5a.37.37,0,0,1-.36-.29,1.92,1.92,0,0,1-.07-.52,2.72,2.72,0,0,1,.06-.46A.38.38,0,0,1,5.7,6l22.23-.08Z"/><path class="cls-1" d="M27.93,7.63,5.7,7.71a.59.59,0,0,1-.57-.44,2.32,2.32,0,0,1-.07-.59,2.2,2.2,0,0,1,.06-.5.61.61,0,0,1,.58-.45l22.22-.08a.22.22,0,0,1,.22.22V7.41A.22.22,0,0,1,27.93,7.63ZM5.7,6.16a.16.16,0,0,0-.16.13,1.75,1.75,0,0,0,0,.4,1.84,1.84,0,0,0,.06.47.15.15,0,0,0,.15.12l22-.08V6.08Z"/><path class="cls-2" d="M27,5.73,1.11,5.82A.14.14,0,0,1,1,5.68a.15.15,0,0,1,.14-.15L27,5.44a.15.15,0,0,1,.15.14A.15.15,0,0,1,27,5.73Z"/><path class="cls-1" d="M40.42,21.4a3.17,3.17,0,0,1-.53,0L37.7,21a3,3,0,0,1-2.41-3.44l.09-.48a2.94,2.94,0,0,1,2.91-2.45,3,3,0,0,1,.52,0L41,15a3,3,0,0,1,2.4,3.43l-.08.49A3,3,0,0,1,40.42,21.4Zm-2.13-6.09a2.26,2.26,0,0,0-2.21,1.86l-.09.49a2.25,2.25,0,0,0,1.83,2.6l2.2.39a2.56,2.56,0,0,0,.39,0,2.24,2.24,0,0,0,2.21-1.86l.09-.48a2.27,2.27,0,0,0-1.83-2.61l-2.2-.38A1.72,1.72,0,0,0,38.29,15.31Z"/><path class="cls-1" d="M35.82,16.75c.3-1.51-1.6-2.57-1.6-2.57l4.3.77S36.19,15,35.82,16.75Z"/><path class="cls-1" d="M35.82,17.1h-.07a.35.35,0,0,1-.28-.42c.25-1.23-1.41-2.18-1.43-2.19a.36.36,0,0,1,.24-.66l4.3.77a.36.36,0,0,1-.06.71c-.09,0-2,0-2.35,1.51A.35.35,0,0,1,35.82,17.1Zm-.32-2.33a3.15,3.15,0,0,1,.53.81,2.7,2.7,0,0,1,.78-.57Z"/><path class="cls-1" d="M43,18.89c.31-1.51-1.23-3.11-1.23-3.11L45.6,17S43.35,17.1,43,18.89Z"/><path class="cls-1" d="M43,19.24H42.9a.36.36,0,0,1-.28-.42c.27-1.31-1.13-2.78-1.14-2.79a.36.36,0,0,1,0-.44.36.36,0,0,1,.41-.15l3.87,1.21a.36.36,0,0,1-.09.7c-.08,0-2,.12-2.3,1.61A.34.34,0,0,1,43,19.24Zm-.28-2.79a5.35,5.35,0,0,1,.54,1.18,2.8,2.8,0,0,1,1-.68Z"/><path class="cls-1" d="M40.81,15.3a5.37,5.37,0,0,1-.26,2.81,5.61,5.61,0,0,1-.93,1.23c-.1.09-.3.35-.41.13s.13-.38.18-.5a4.57,4.57,0,0,0,.47-1.39v0s0-.12,0-.16a3.06,3.06,0,0,0-.05-.32,4.48,4.48,0,0,0-.2-.62,8.29,8.29,0,0,1-.35-1c-.16-.69.5-1.32,1.09-1A.9.9,0,0,1,40.81,15.3Z"/><path class="cls-1" d="M47.26,1.36c-.37.12-.46.3-1.14.84a3.44,3.44,0,0,1-1.76.94,2.18,2.18,0,0,1-.64-.05,2.77,2.77,0,0,1-1.25-.76c-.15-.12-.34-.27-.57-.43a3.6,3.6,0,0,0-1.2-.65c1,.39,1.23,1.68,1.23,2.59L41.81,6.2l1.76,2.62a5.31,5.31,0,0,1,1.14.23A5.09,5.09,0,0,0,45,7.15c-.06-.84-.34-1.3-.05-1.77.17-.29.36-.18.86-.58a3.85,3.85,0,0,0,.92-1.17c.39-.69.31-.91.64-1.31A3.53,3.53,0,0,1,48,1.78C48.43,1.48,47.93,1.15,47.26,1.36Z"/><path class="cls-1" d="M44.72,9.26h-.07A5.06,5.06,0,0,0,43.55,9a.22.22,0,0,1-.16-.09L41.63,6.32a.22.22,0,0,1,0-.13l.13-2.36c0-.73-.15-2-1.1-2.38a.21.21,0,0,1-.13-.26A.21.21,0,0,1,40.74,1a3.31,3.31,0,0,1,1.15.59l.14.09a6.41,6.41,0,0,1,.58.45l.13.11a2.29,2.29,0,0,0,1,.6,1.59,1.59,0,0,0,.58,0A3.68,3.68,0,0,0,46,2c.21-.16.36-.3.48-.41a2.13,2.13,0,0,1,.72-.46,1.72,1.72,0,0,1,.48-.08.7.7,0,0,1,.7.36.46.46,0,0,1-.21.51l-.2.14a1.83,1.83,0,0,0-.43.36,1.4,1.4,0,0,0-.28.52,4.68,4.68,0,0,1-.34.77,4.25,4.25,0,0,1-1,1.23,2.4,2.4,0,0,1-.58.35.42.42,0,0,0-.23.17c-.14.23-.11.45,0,.89,0,.22.08.46.11.75a5.51,5.51,0,0,1-.29,2A.22.22,0,0,1,44.72,9.26Zm-1-.65a8.24,8.24,0,0,1,.89.17,5.23,5.23,0,0,0,.2-1.61c0-.27-.07-.5-.1-.71a1.51,1.51,0,0,1,.08-1.2.79.79,0,0,1,.41-.33,1.81,1.81,0,0,0,.49-.3,3.32,3.32,0,0,0,.87-1.11,3.83,3.83,0,0,0,.32-.69,1.86,1.86,0,0,1,.34-.65,2.65,2.65,0,0,1,.53-.45l.18-.12.05,0a.57.57,0,0,0-.28-.06,1,1,0,0,0-.34.06,1.47,1.47,0,0,0-.57.38l-.51.42a3.82,3.82,0,0,1-1.87,1h-.19a2.31,2.31,0,0,1-.52-.06,2.71,2.71,0,0,1-1.22-.7l-.11-.1a4.91,4.91,0,0,0-.51-.39,4.37,4.37,0,0,1,.32,1.73L42,6.14Z"/><path class="cls-2" d="M27.19,6.75,5.73,6.83a.15.15,0,1,1,0-.29l21.46-.08a.15.15,0,0,1,.14.15A.14.14,0,0,1,27.19,6.75Z"/><path class="cls-2" d="M42.07,8.56l-.14-4.72c0-.91-.22-2.2-1.23-2.59A3.36,3.36,0,0,0,40,1.17l-11.65.05a1.12,1.12,0,0,0-1.17.86l0,6.29a1.05,1.05,0,0,0,.4.82,2,2,0,0,1,.8.89,13.76,13.76,0,0,1,.44,2.68,1.06,1.06,0,0,0,.82.72l11.24,2c1,.21,1,1.12,1.74,1.33l1.6.16c-2.06-3,0-6,2.34-6A3,3,0,0,0,46,9.88a2.9,2.9,0,0,0-1.25-.83,5.31,5.31,0,0,0-1.14-.23Z"/><path class="cls-1" d="M44.25,17.21h0l-1.6-.15h0a1.62,1.62,0,0,1-.82-.67,1.49,1.49,0,0,0-.9-.66l-11.24-2a1.25,1.25,0,0,1-1-.86,4.56,4.56,0,0,1-.1-.8,6.49,6.49,0,0,0-.33-1.86,1.71,1.71,0,0,0-.61-.72.71.71,0,0,1-.14-.1,1.26,1.26,0,0,1-.48-1l0-6.29V2a1.34,1.34,0,0,1,1.38-1h1.8L40,1a3.82,3.82,0,0,1,.75.08h0C42,1.51,42.15,3,42.15,3.84l.13,4.53,1.31.23a5.93,5.93,0,0,1,1.19.24,3.4,3.4,0,0,1,1.34.89,3.29,3.29,0,0,1,.67,1.18.23.23,0,0,1-.21.28A3,3,0,0,0,44,12.85a3.86,3.86,0,0,0,.43,4,.21.21,0,0,1,0,.23A.22.22,0,0,1,44.25,17.21Zm-1.57-.58,1.15.11a4.14,4.14,0,0,1-.22-4.09,3.43,3.43,0,0,1,2.67-1.88A2.82,2.82,0,0,0,45.8,10a2.86,2.86,0,0,0-1.16-.77A4.92,4.92,0,0,0,43.55,9h0L42,8.77a.23.23,0,0,1-.18-.21l-.13-4.72c0-.73-.15-2-1.08-2.39A3.66,3.66,0,0,0,40,1.39l-9.85,0h-1.8a.89.89,0,0,0-.95.67l0,6.27a.84.84,0,0,0,.32.65l.11.08a2.07,2.07,0,0,1,.75.89A6.19,6.19,0,0,1,29,12a4.67,4.67,0,0,0,.09.71.84.84,0,0,0,.65.57l11.24,2a1.88,1.88,0,0,1,1.16.82A1.28,1.28,0,0,0,42.68,16.63Z"/><path class="cls-1" d="M46.58,11A3,3,0,0,0,46,9.88a2.9,2.9,0,0,0-1.25-.83,5.31,5.31,0,0,0-1.14-.23l-1.5-.26L42,6.3H40.28l0,4.53a.48.48,0,0,1-.47.47l-8.85,0a.47.47,0,0,1-.47-.47l0-4.52h-3.3v2a1.05,1.05,0,0,0,.4.82,2,2,0,0,1,.8.89,13.76,13.76,0,0,1,.44,2.68,1.06,1.06,0,0,0,.82.72l11.24,2c1,.21,1,1.12,1.74,1.33l1.6.16C42.18,14,44.2,11,46.58,11Z"/><rect class="cls-1" x="27.18" y="3.42" width="3.31" height="1.02" transform="translate(-0.01 0.1) rotate(-0.21)"/><rect class="cls-1" x="27.18" y="4.84" width="3.31" height="0.39" transform="translate(-0.02 0.1) rotate(-0.21)"/><rect class="cls-1" x="27.85" y="1.76" width="11.85" height="0.57" transform="translate(-0.01 0.12) rotate(-0.21)"/><rect class="cls-2" x="27.8" y="8.4" width="2.7" height="0.47" transform="translate(-0.03 0.1) rotate(-0.21)"/><path class="cls-2" d="M43.81,16.74l-1.15-.12a1.27,1.27,0,0,1-.56-.5,1.88,1.88,0,0,0-1.16-.82l-11.24-2a.84.84,0,0,1-.65-.57A3.71,3.71,0,0,1,29,12a6.2,6.2,0,0,0-.37-2,2.07,2.07,0,0,0-.75-.89L27.73,9a.84.84,0,0,1-.32-.65l0-6.27v0a.91.91,0,0,1,.94-.64h1.93l9.72,0a3.18,3.18,0,0,1,.62.06h0c1,.41,1.06,1.8,1.06,2.38l.14,4.9L43.55,9a5,5,0,0,1,1.09.22A2.74,2.74,0,0,1,45.8,10a3.21,3.21,0,0,1,.34.48l.15.26-.3.05a3.49,3.49,0,0,0-2.38,1.84,4.07,4.07,0,0,0,0,3.75Zm-1-.53.33,0a4.41,4.41,0,0,1,.12-3.79,3.88,3.88,0,0,1,2.38-2c0-.06-.09-.11-.13-.16a2.34,2.34,0,0,0-1-.65,4.69,4.69,0,0,0-1-.2h-.05l-2-.35-.15-5.26c0-.38-.06-1.65-.78-2A2.29,2.29,0,0,0,40,1.82l-9.72,0H28.34a.5.5,0,0,0-.52.31l0,6.2a.43.43,0,0,0,.16.32l.08.05h0A2.52,2.52,0,0,1,29,9.8,6.85,6.85,0,0,1,29.39,12c0,.19,0,.54.06.61a.43.43,0,0,0,.32.28l11.26,2a2.26,2.26,0,0,1,1.41,1A1.24,1.24,0,0,0,42.78,16.21Z"/><path class="cls-2" d="M40.16,2.52l0,8.44a4,4,0,0,0,3.75-4.23A4,4,0,0,0,40.16,2.52Z"/><path class="cls-1" d="M40.19,11.17A.21.21,0,0,1,40,11l0-8.44a.21.21,0,0,1,.21-.21,4.23,4.23,0,0,1,4,4.42A4.23,4.23,0,0,1,40.19,11.17Zm.19-8.43,0,8a3.84,3.84,0,0,0,3.32-4A3.84,3.84,0,0,0,40.38,2.74Z"/><path class="cls-1" d="M40.18,3.26l.18,0h.1l.12,0,.29.06.33.11a2.52,2.52,0,0,1,.34.15l.18.1a1,1,0,0,1,.17.12l.17.12.15.14.15.15s.09.1.13.16l.12.16.1.17a.91.91,0,0,1,.09.17l.07.16a2.85,2.85,0,0,1,.1.32l0,.14,0,.13a1.77,1.77,0,0,1,0,.22v.18l0-.18a.88.88,0,0,0,0-.21l0-.13-.05-.13a2.34,2.34,0,0,0-.12-.3A1.19,1.19,0,0,0,42.69,5a1.19,1.19,0,0,0-.09-.15l-.12-.15-.12-.14a.86.86,0,0,0-.14-.13l-.15-.13-.15-.11-.17-.1A1.29,1.29,0,0,0,41.59,4l-.17-.07a2.13,2.13,0,0,0-.33-.11,1.59,1.59,0,0,0-.3-.06,1.13,1.13,0,0,0-.25,0h-.38Z"/><path class="cls-1" d="M40.19,9.21v1a3.43,3.43,0,0,0,3.18-3.65,4.41,4.41,0,0,0,0-.52A3.37,3.37,0,0,1,40.19,9.21Z"/><rect class="cls-1" x="0.69" y="2.96" width="26.45" height="0.79" transform="translate(-0.01 0.05) rotate(-0.21)"/><rect class="cls-2" x="8.15" y="5.27" width="1.24" height="2.72" rx="0.62" transform="translate(-0.02 0.03) rotate(-0.21)"/><path class="cls-1" d="M9.12,8.2h-.7a.47.47,0,0,1-.48-.48V5.54a.49.49,0,0,1,.48-.49h.7a.49.49,0,0,1,.49.48V7.71A.48.48,0,0,1,9.12,8.2ZM8.41,5.48a.06.06,0,0,0-.05.06V7.72a.06.06,0,0,0,.06,0h.7a.06.06,0,0,0,.06,0V5.53a.06.06,0,0,0-.06,0Z"/><path class="cls-1" d="M9.12,7.29h-.7c-.15,0-.27-.08-.27-.17v.68c0,.1.12.18.27.18h.7c.15,0,.27-.07.27-.17V7.12C9.39,7.22,9.27,7.29,9.12,7.29Z"/><path class="cls-1" d="M9.12,8.2h-.7a.44.44,0,0,1-.48-.38V7.13a.22.22,0,0,1,.22-.22.23.23,0,0,1,.21.16h.82a.22.22,0,0,1,.21-.16.21.21,0,0,1,.21.21v.69C9.61,8,9.39,8.2,9.12,8.2Zm-.75-.44h.81V7.51H8.36Z"/><rect class="cls-1" x="31.29" y="8.85" width="8.9" height="2.47" transform="translate(-0.04 0.13) rotate(-0.21)"/><rect class="cls-1" x="31.27" y="4.42" width="8.9" height="1.87" transform="translate(-0.02 0.13) rotate(-0.21)"/><rect class="cls-1" x="31.1" y="6.76" width="9.08" height="0.63" transform="translate(-0.03 0.13) rotate(-0.21)"/><rect class="cls-1" x="31.13" y="2.91" width="9.08" height="0.56" transform="translate(-0.01 0.13) rotate(-0.21)"/><path class="cls-2" d="M30.89,2.75v.74h4.57a1.17,1.17,0,0,0,1.15-1.17v0l-5.28,0A.44.44,0,0,0,30.89,2.75Z"/><path class="cls-2" d="M36.61,1.71l-5.29,0a1,1,0,0,0-1,1v.74a.56.56,0,0,0,.57.57h4.57A1.74,1.74,0,0,0,37.18,2.3v0a.57.57,0,0,0-.57-.55Z"/><path class="cls-2" d="M30.58,2.75v.74H35.4a1.2,1.2,0,0,0,1.21-1.17v0l-5.56,0A.47.47,0,0,0,30.58,2.75Z"/><path class="cls-1" d="M35.4,3.69l-4.81,0a.22.22,0,0,1-.22-.22V2.75a.67.67,0,0,1,.68-.66l5.56,0a.21.21,0,0,1,.21.21v0A1.39,1.39,0,0,1,35.4,3.69Zm-4.6-.41,4.6,0a1,1,0,0,0,1-.76l-5.33,0a.24.24,0,0,0-.25.23Z"/><path class="cls-1" d="M35.44,9.92H30.7v.72a.46.46,0,0,0,.46.45l5.48,0A1.18,1.18,0,0,0,35.44,9.92Z"/><path class="cls-2" d="M35.44,9.92a1.18,1.18,0,0,1,1.2,1.16l-5.48,0a.46.46,0,0,1-.46-.45V9.93Zm0-.29-4.74,0a.29.29,0,0,0-.29.28v.72a.74.74,0,0,0,.75.73l5.48,0a.28.28,0,0,0,.29-.28,1.47,1.47,0,0,0-1.49-1.45Z"/><path class="cls-2" d="M35.43,5.59l-4.72,0V7.94l4.73,0a1.17,1.17,0,1,0,0-2.33Z"/><path class="cls-2" d="M35.43,5.09l-4.73,0a.49.49,0,0,0-.49.5V7.94a.51.51,0,0,0,.51.5l4.72,0a1.67,1.67,0,1,0,0-3.33Z"/><path class="cls-2" d="M35.41,5.59l-4.82,0V7.94l4.82,0a1.2,1.2,0,0,0,1.21-1.17A1.2,1.2,0,0,0,35.41,5.59Z"/><path class="cls-1" d="M35.42,8.14H30.6a.21.21,0,0,1-.21-.21V5.61a.21.21,0,0,1,.21-.22h4.82a1.4,1.4,0,0,1,1.43,1.37A1.42,1.42,0,0,1,35.42,8.14Zm-4.6-.42h4.59a1,1,0,0,0,1-1,1,1,0,0,0-1-.94h-4.6Z"/><path class="cls-1" d="M36.53,7.22a1.16,1.16,0,0,0-1.12-1.63l-4.82,0v.93l4.81,0A1.23,1.23,0,0,1,36.53,7.22Z"/><path class="cls-1" d="M36.53,7.43h0a.23.23,0,0,1-.2-.12,1,1,0,0,0-.92-.57H30.6a.21.21,0,0,1-.22-.21V5.61a.21.21,0,0,1,.21-.22h4.82a1.4,1.4,0,0,1,1.43,1.37,1.38,1.38,0,0,1-.12.56A.21.21,0,0,1,36.53,7.43ZM30.81,6.32h4.6a1.44,1.44,0,0,1,1,.39,1,1,0,0,0-1-.89h-4.6Z"/><path class="cls-2" d="M36.35,6.51l-.05,0-.13-.13a1.21,1.21,0,0,0-.58-.26l-.2,0h-.22l-.5,0H30.59V5.81h.93l2.05,0h1.09l.51,0,.24,0,.23,0a1.19,1.19,0,0,1,.58.41.79.79,0,0,1,.1.16Z"/><path class="cls-1" d="M39.83,11.66l-8.85,0a.81.81,0,0,1-.83-.81l0-8.2a.83.83,0,0,1,.82-.83l8.86,0a.82.82,0,0,1,.82.82l0,8.2A.82.82,0,0,1,39.83,11.66ZM31,2.57a.11.11,0,0,0-.11.1l0,8.2A.11.11,0,0,0,31,11l8.85,0a.11.11,0,0,0,.11-.11l0-8.2a.11.11,0,0,0-.11-.11Z"/><path class="cls-1" d="M60.39,27.66c-1.22-3.27-2.36-6-3.29-8.1A17.86,17.86,0,0,0,54.41,15,10.61,10.61,0,0,0,50.8,12a9.62,9.62,0,0,0-4.22-1c-2.38,0-4.4,3-2.34,6a11.56,11.56,0,0,1,2.39.36,5.23,5.23,0,0,1,2.82,3.23c.52,1.39.35,2.64.09,4.6a22.2,22.2,0,0,1-.51,2.6.78.78,0,0,0,.76,1c3.28,0,6.57-.06,9.86-.05A.79.79,0,0,0,60.39,27.66Z"/><path class="cls-1" d="M51.29,29h-1.5A1,1,0,0,1,49,28.6a1,1,0,0,1-.18-.86,24.34,24.34,0,0,0,.51-2.58c.26-2,.42-3.16-.08-4.5v0a4.82,4.82,0,0,0-2.69-3.07,10,10,0,0,0-2.32-.35.19.19,0,0,1-.16-.09,4.25,4.25,0,0,1-.46-4.47,3.41,3.41,0,0,1,3-1.89,9.89,9.89,0,0,1,4.32,1,11.05,11.05,0,0,1,3.68,3.12,17.84,17.84,0,0,1,2.71,4.59c1.16,2.61,2.26,5.34,3.3,8.12a1,1,0,0,1-.94,1.34h0c-1.64,0-3.26,0-4.88,0ZM44.36,16.79a10.59,10.59,0,0,1,2.34.37,5.22,5.22,0,0,1,2.94,3.32v0c.54,1.44.37,2.74.1,4.71a22.81,22.81,0,0,1-.51,2.63.52.52,0,0,0,.1.48.57.57,0,0,0,.45.23c1.66,0,3.31,0,5,0s3.26,0,4.89,0h0a.58.58,0,0,0,.47-.24.57.57,0,0,0,.07-.52c-1-2.77-2.14-5.49-3.29-8.09a17.45,17.45,0,0,0-2.65-4.49,10.6,10.6,0,0,0-3.54-3,9.35,9.35,0,0,0-4.13-1A3,3,0,0,0,44,12.85,3.81,3.81,0,0,0,44.36,16.79Z"/><path class="cls-2" d="M49.47,27.9l.19-1.17c.05-.35.11-.76.16-1.19L50,24.16c0-.23,0-.47.07-.7s0-.45.06-.67a9.31,9.31,0,0,0,0-1.2c0-.17,0-.33-.07-.47s-.05-.26-.07-.36l-.08-.32,0,.08.09.22a3.32,3.32,0,0,1,.13.35q.06.21.12.48c0,.18.06.37.08.58s0,.42,0,.64,0,.46,0,.7,0,.47-.07.7c-.06.48-.12.94-.2,1.38s-.16.85-.25,1.19-.18.63-.24.83A2.7,2.7,0,0,1,49.47,27.9Z"/><path class="cls-2" d="M49.16,11.71l.2.06.54.17a7.47,7.47,0,0,1,.83.36,8.49,8.49,0,0,1,1,.58,8.82,8.82,0,0,1,1.08.86,12.43,12.43,0,0,1,1,1.11c.18.21.35.41.52.63s.34.43.5.66a13.48,13.48,0,0,1,.9,1.45c.55,1,1,2.05,1.4,3s.78,1.9,1.08,2.69.54,1.46.71,1.92l.26.73-1.12-2.59c-.34-.78-.74-1.68-1.16-2.65l-.67-1.49c-.23-.5-.48-1-.75-1.5a15.87,15.87,0,0,0-.87-1.42l-.48-.66L53.68,15a14.15,14.15,0,0,0-1-1.13,10.06,10.06,0,0,0-1-.88,9.55,9.55,0,0,0-1-.62,6.37,6.37,0,0,0-.8-.39C49.43,11.8,49.16,11.71,49.16,11.71Z"/><path class="cls-2" d="M56.05,20a16.65,16.65,0,0,0-2.52-4.27A9.62,9.62,0,0,0,50.3,13a8.36,8.36,0,0,0-3.12-.84.41.41,0,0,0-.43.4l0,3.37a.4.4,0,0,0,.26.38h0a6.1,6.1,0,0,1,3.48,3.87v0c.62,1.65.43,3.12.15,5.15-.09.67-.2,1.28-.31,1.8a.4.4,0,0,0,.39.49h.54l3.47,0,3.47,0h.33a.4.4,0,0,0,.37-.54C58,24.64,57.05,22.29,56.05,20Z"/><path class="cls-2" d="M46.58,11.4h-.07l-.2,0-.13,0-.16,0-.17.07a.82.82,0,0,0-.19.09,2,2,0,0,0-.38.24,2.43,2.43,0,0,0-.38.34,2.72,2.72,0,0,0-.34.42c-.05.08-.1.16-.14.24a2.06,2.06,0,0,0-.12.26,3.16,3.16,0,0,0-.17.52,3.33,3.33,0,0,0-.07.54,4.18,4.18,0,0,0,0,.51,3.17,3.17,0,0,0,.07.46,3,3,0,0,0,.1.38c0,.11.07.21.09.29l.1.25,0-.05-.11-.17a2.43,2.43,0,0,1-.14-.28,2.72,2.72,0,0,1-.16-.38,2.93,2.93,0,0,1-.12-.47,3.08,3.08,0,0,1-.06-.54,4,4,0,0,1,0-.59,3.32,3.32,0,0,1,.18-.59c0-.1.09-.18.13-.27s.1-.18.16-.26a2.87,2.87,0,0,1,.39-.45,2.66,2.66,0,0,1,.44-.33,2.38,2.38,0,0,1,.83-.33l.17,0h.42Z"/><path class="cls-2" d="M46,13.93a.45.45,0,0,1-.45.45.46.46,0,0,1-.46-.45.46.46,0,0,1,.91,0Z"/><path class="cls-1" d="M52.06,26.42a.45.45,0,0,1-.45.45.46.46,0,0,1-.46-.45.46.46,0,0,1,.91,0Z"/><path class="cls-1" d="M58.06,26.4a.46.46,0,0,1-.46.45.45.45,0,0,1-.45-.45.46.46,0,0,1,.45-.46A.47.47,0,0,1,58.06,26.4Z"/><path class="cls-2" d="M42.12,12.7a.69.69,0,1,1-.69-.69A.69.69,0,0,1,42.12,12.7Z"/><path class="cls-2" d="M36.52,12.69a.5.5,0,0,1-1,0,.5.5,0,1,1,1,0Z"/><path class="cls-2" d="M42.08,2.28l.23.17c.14.1.33.27.57.45a2.54,2.54,0,0,0,.86.47,1.07,1.07,0,0,0,.25,0h.14l.14,0a2,2,0,0,0,.54-.14A3.11,3.11,0,0,0,45.33,3c.16-.1.32-.2.47-.31.3-.22.57-.45.8-.64a4.67,4.67,0,0,1,.58-.45.75.75,0,0,1,.19-.09l.07,0-.06,0a1.31,1.31,0,0,0-.16.13c-.13.11-.3.3-.51.52s-.46.47-.75.72a4.73,4.73,0,0,1-.49.35,4.18,4.18,0,0,1-.56.28,3,3,0,0,1-.61.15H44a1.13,1.13,0,0,1-.32-.05,1.75,1.75,0,0,1-.51-.26A3.37,3.37,0,0,1,42.77,3c-.22-.21-.38-.4-.5-.53Z"/><path class="cls-2" d="M44.41,6a.69.69,0,0,1,.05.1.88.88,0,0,1,.11.27,2,2,0,0,1,.1.39,3.56,3.56,0,0,1,0,.47,3.74,3.74,0,0,1-.08.87,2.45,2.45,0,0,1-.13.38.5.5,0,0,1,0-.11c0-.07,0-.17,0-.28s0-.13,0-.19,0-.14,0-.21l0-.45V6Z"/><path class="cls-2" d="M3.24,2a.87.87,0,0,1,0-.11.93.93,0,0,1,0-.13l.07-.16a1.74,1.74,0,0,1,.11-.18.8.8,0,0,1,.15-.17A1.54,1.54,0,0,1,3.81,1,1.48,1.48,0,0,1,4,.9L4.26.79,4.5.72l.22,0h.21l.17,0,.13,0,.11,0-.12,0-.28,0L4.76.9,4.56,1a3.52,3.52,0,0,0-.4.18L4,1.26l-.1.06-.08.07-.16.13-.14.12a.9.9,0,0,0-.1.12l-.08.1Z"/><rect class="cls-1" x="8.14" y="5.77" width="1.24" height="0.4" transform="translate(-0.02 0.03) rotate(-0.21)"/><rect class="cls-1" x="40.62" y="12.57" width="1.63" height="0.29" transform="translate(2.25 31.23) rotate(-42.35)"/><path class="cls-1" d="M48.83,12.79a2.07,2.07,0,0,1-.2.29c-.06.08-.13.17-.22.27a3.71,3.71,0,0,1-.27.29l-.29.28-.27.22a2.07,2.07,0,0,1-.29.2,2.47,2.47,0,0,1,.2-.28,2.61,2.61,0,0,1,.22-.27l.28-.3a3.71,3.71,0,0,1,.29-.27c.09-.09.19-.16.27-.23Z"/><path class="cls-1" d="M49.92,13.29l-.36.44c-.11.13-.25.28-.4.43s-.3.32-.46.48-.33.32-.49.46l-.44.38c-.26.22-.45.36-.45.36s.14-.19.36-.44l.4-.44.46-.47c.17-.16.33-.32.49-.46l.44-.39C49.73,13.42,49.92,13.29,49.92,13.29Z"/><path class="cls-1" d="M51,13.8l-.38.46-.41.44c-.16.16-.32.33-.49.49s-.34.33-.51.48l-.45.39-.47.37s.14-.19.38-.45l.41-.45.49-.49c.17-.16.34-.33.5-.47l.46-.4C50.84,13.94,51,13.8,51,13.8Z"/><path class="cls-1" d="M51.8,14.48a5.25,5.25,0,0,1-.36.43c-.11.13-.25.28-.4.43l-.47.47c-.16.16-.33.31-.49.45a3.6,3.6,0,0,1-.44.38c-.26.22-.45.35-.45.35s.14-.18.37-.43l.39-.43.47-.47.49-.45c.16-.15.31-.28.44-.38S51.8,14.48,51.8,14.48Z"/><path class="cls-1" d="M52.68,15.16s-.15.2-.38.47-.26.3-.42.46-.32.34-.49.51l-.5.49-.46.41c-.28.24-.47.38-.47.38s.14-.19.38-.47l.41-.46.49-.5c.17-.17.34-.34.51-.49a5.26,5.26,0,0,1,.46-.41C52.48,15.31,52.68,15.16,52.68,15.16Z"/><path class="cls-1" d="M53.32,16s-.15.21-.41.5l-.44.49-.52.54-.54.53-.48.44c-.29.25-.5.41-.5.41s.16-.21.41-.5l.44-.49.52-.54.54-.53.49-.44C53.11,16.18,53.32,16,53.32,16Z"/><path class="cls-1" d="M53.9,17l-.43.5A6.32,6.32,0,0,1,53,18c-.16.18-.35.37-.53.55s-.38.37-.56.53l-.49.45c-.3.26-.51.42-.51.42s.16-.21.42-.51L51.8,19l.54-.55.55-.53.5-.45A5.47,5.47,0,0,1,53.9,17Z"/><path class="cls-1" d="M54.49,17.74s-.18.22-.48.53c-.15.16-.32.35-.51.54s-.39.4-.6.6l-.61.59c-.19.19-.38.36-.54.5-.32.29-.55.47-.55.47s.17-.23.46-.56c.14-.16.31-.35.5-.54l.29-.31.3-.3.62-.59c.2-.18.39-.35.56-.48C54.26,17.91,54.49,17.74,54.49,17.74Z"/><path class="cls-1" d="M55.13,18.91l-.15.17-.4.44-.58.6c-.21.21-.44.44-.68.66s-.47.45-.69.66L52,22l-.45.38a1.48,1.48,0,0,1-.18.13l.15-.16.4-.44c.16-.18.36-.38.58-.6s.44-.44.68-.67l.69-.65.63-.55.45-.38Z"/><path class="cls-1" d="M55.63,19.89l-.17.19-.46.49c-.2.21-.42.44-.67.68s-.51.51-.78.77-.54.51-.8.74L52,23.4l-.52.44-.19.16.17-.19c.11-.12.26-.3.45-.5l.67-.68.78-.77c.27-.25.54-.51.8-.74l.71-.64.52-.43A1.55,1.55,0,0,1,55.63,19.89Z"/><path class="cls-1" d="M56.06,21s-.06.08-.19.22-.29.33-.51.56-.46.49-.74.77l-.86.87-.88.85-.79.73-.57.5-.22.19.19-.22c.13-.13.3-.33.51-.56l.74-.77.87-.87c.3-.29.6-.59.88-.85s.55-.52.79-.73l.57-.5Z"/><path class="cls-1" d="M56.63,22l-.17.2c-.12.13-.27.31-.47.52l-.68.71-.81.8c-.27.27-.55.54-.81.78l-.73.67-.53.46-.2.17.17-.2c.11-.13.27-.31.47-.52s.43-.46.68-.71l.8-.8.82-.78.73-.67.53-.46Z"/><path class="cls-1" d="M57,23.09l-.16.19-.43.49-.63.68c-.23.25-.49.5-.74.76s-.51.51-.76.74-.47.45-.67.63-.37.33-.49.44l-.19.16L53.1,27l.43-.49c.18-.21.4-.44.63-.68s.49-.5.74-.76.51-.51.75-.74l.68-.63c.2-.19.37-.33.49-.44Z"/><path class="cls-1" d="M57.41,24.31l-.36.44c-.12.13-.25.28-.4.43s-.31.32-.47.48-.33.32-.49.46-.31.28-.44.39-.45.36-.45.36.14-.19.37-.45l.39-.43.47-.48c.17-.16.33-.32.49-.46l.44-.39C57.22,24.44,57.41,24.31,57.41,24.31Z"/><path class="cls-1" d="M50.41,13.75l.53.45c.16.14.34.3.52.48s.39.37.58.57l.55.59c.18.19.34.37.47.53s.44.53.44.53-.22-.17-.53-.45c-.15-.14-.33-.3-.51-.48l-.57-.57c-.19-.2-.39-.4-.56-.59l-.47-.52C50.58,14,50.41,13.75,50.41,13.75Z"/><path class="cls-1" d="M48,12.83l.37.32.43.38.54.49c.39.37.84.81,1.31,1.28l.73.74c.24.26.49.51.74.77l1.45,1.53.66.7.6.62.91.93.35.35-.38-.32-.42-.38-.54-.49-1.32-1.28-.72-.74L52,17l-1.44-1.52-.67-.71-.6-.62-.9-.93Z"/><path class="cls-1" d="M47.23,13.55l.45.4c.28.26.69.62,1.17,1.08l.76.73.85.83,1.82,1.81,1.79,1.84.83.85.74.75L56.75,23l.41.43-.44-.4c-.28-.27-.69-.63-1.17-1.08l-.76-.73c-.28-.26-.56-.54-.85-.83l-1.82-1.82Z"/><path class="cls-1" d="M49.89,17.63l.35.33.9.88,1.24,1.27,1.4,1.47L55.19,23l.66.67.59.59.91.87.34.33-.37-.3-.42-.35c-.17-.13-.35-.29-.54-.46-.39-.35-.83-.76-1.3-1.22l-.71-.7-.72-.75c-.48-.5-1-1-1.39-1.48s-.84-.94-1.19-1.32L50.21,18Z"/><path class="cls-1" d="M47.28,15.12a2.5,2.5,0,0,1,.29.18,6.66,6.66,0,0,1,.56.47,4.94,4.94,0,0,1,.51.54,2,2,0,0,1,.2.27l-.28-.18a5.41,5.41,0,0,1-.57-.47,4.94,4.94,0,0,1-.51-.54A2,2,0,0,1,47.28,15.12Z"/><path class="cls-1" d="M51.13,20.51l.26.22c.17.15.41.35.68.6l.94.87c.35.32.7.66,1.06,1l.53.52c.18.17.34.35.51.51l.88.93c.26.27.46.51.61.67l.22.26-.25-.23-.67-.61L55,24.38l-1.06-1-1-1L52,21.42l-.62-.66Z"/><path class="cls-1" d="M51.35,22.31l.23.2.58.52c.24.22.52.47.81.75l.92.88.89.9c.29.29.55.57.77.8l.53.58.2.23-.23-.2-.59-.52-.81-.75-.91-.88c-.31-.31-.62-.61-.9-.9l-.76-.8c-.23-.24-.4-.44-.53-.58Z"/><path class="cls-1" d="M51.36,23.78s.22.17.54.45l.53.48.59.57q.3.3.57.6l.49.53.45.53s-.23-.17-.54-.45L53.46,26l-.59-.57-.58-.59-.48-.53C51.53,24,51.36,23.78,51.36,23.78Z"/></g></g></svg>