<svg height="512" width="512" xmlns="http://www.w3.org/2000/svg"><path d="M22.5 22.5h30v482h-30z" fill="#b0b0b0"/><path d="M52.5 7.5h-30v30h30c8.284 0 15-6.716 15-15s-6.716-15-15-15z" fill="#ffce53"/><circle cx="22.5" cy="22.5" fill="#ffe373" r="15"/><path d="M504.5 187.5v272h-30l-60-136 60-136z" fill="#de2318"/><path d="M238.17 97.5l60 136-60 136H82.5v-272z" fill="#22783c"/><path d="M474.5 187.5v272H363.83l-60-136 60-136z" fill="#ff2e23"/><path d="M333.83 187.5v-45c0-24.75-20.25-45-45-45h-29.997l45 301.845L348.83 437V202.5z" fill="#fff7d6"/><path d="M258.833 97.5H238.17v272h30l35.663 29.845V142.5c0-24.75-20.25-45-45-45z" fill="#fff"/><path d="M311.33 369.5h-43.16V437h65.66v-45c0-12.43-10.07-22.5-22.5-22.5z" fill="#ffe373"/><path d="M363.83 187.5v272h-73.16c-12.43 0-22.5-10.07-22.5-22.5s10.07-22.5 22.5-22.5h20.66c12.43 0 22.5-10.07 22.5-22.5V187.5z" fill="#fff"/><path d="M504.5 180H341.333v-37.5c0-28.949-23.551-52.5-52.5-52.5H89.245C86.255 75.328 74.672 63.745 60 60.755V43.71c8.729-3.096 15-11.432 15-21.21C75 10.093 64.907 0 52.5 0h-30C10.093 0 0 10.093 0 22.5c0 9.778 6.271 18.114 15 21.21V504.5a7.5 7.5 0 007.5 7.5h30a7.5 7.5 0 007.5-7.5v-98.255c14.672-2.99 26.255-14.573 29.245-29.245h171.421v60c0 16.542 13.458 30 30 30H504.5a7.5 7.5 0 007.5-7.5v-272a7.5 7.5 0 00-7.5-7.5zM22.5 15h30c4.136 0 7.5 3.364 7.5 7.5S56.636 30 52.5 30h-30c-4.136 0-7.5-3.364-7.5-7.5s3.364-7.5 7.5-7.5zM30 497V45h15v452zm45-127.5c0 9.778-6.271 18.114-15 21.21V76.29c8.729 3.096 15 11.432 15 21.21zm251.333-227v223.536a29.8 29.8 0 00-15-4.036h-65.667V157.5a7.5 7.5 0 00-15 0V362H90V105h140.667v22.5a7.5 7.5 0 0015 0V105h43.167c20.677 0 37.499 16.822 37.499 37.5zm-15 234.5c8.271 0 15 6.729 15 15s-6.729 15-15 15h-20.667a29.81 29.81 0 00-15 4.036V377zm-35.666 60c0-8.271 6.729-15 15-15h20.667c16.542 0 30-13.458 30-30V195h15v257h-65.667c-8.271 0-15-6.729-15-15zM497 452H371.333V195H497z"/></svg>